<?xml version="1.0" standalone="no"?>
<!DOCTYPE svg PUBLIC "-//W3C//DTD SVG 20010904//EN"
 "http://www.w3.org/TR/2001/REC-SVG-20010904/DTD/svg10.dtd">
<svg version="1.0" xmlns="http://www.w3.org/2000/svg"
 width="28" height="103" viewBox="0 0 1280.000000 1104.000000"
 preserveAspectRatio="xMidYMid meet">
<metadata>
Created by potrace 1.15, written by Peter Selinger 2001-2017
</metadata>
<g transform="translate(0.000000,1104.000000) scale(0.100000,-0.100000)"
fill="#fff" stroke="none">
<path d="M5656 11008 c-8 -13 -715 -1200 -1571 -2638 -857 -1438 -2125 -3567
-2818 -4730 -693 -1163 -1261 -2118 -1263 -2122 -2 -3 203 -340 456 -749 254
-408 459 -748 456 -756 -5 -11 883 -13 5497 -13 l5502 1 430 770 c236 424 435
774 442 777 7 5 -402 719 -1214 2117 -674 1161 -1908 3285 -2742 4721 l-1516
2611 -810 7 c-503 4 -811 10 -813 16 -6 17 -21 11 -36 -12z m909 -5278 c82
-140 436 -747 787 -1349 351 -601 637 -1096 634 -1098 -7 -7 -3167 -26 -3173
-19 -3 3 64 126 150 273 85 147 432 750 772 1338 739 1281 655 1140 670 1123
6 -7 79 -128 160 -268z"/>
</g>
</svg>
